<?xml version="1.0" encoding="utf-8"?>
<!-- Generator: Adobe Illustrator 24.2.3, SVG Export Plug-In . SVG Version: 6.00 Build 0)  -->
<svg version="1.1" id="Capa_1" xmlns="http://www.w3.org/2000/svg" xmlns:xlink="http://www.w3.org/1999/xlink" x="0px" y="0px"
	 viewBox="0 0 550 429" style="enable-background:new 0 0 550 429;" xml:space="preserve">
<style type="text/css">
	.st0{fill:#F5F4FE;}
	.st1{fill-rule:evenodd;clip-rule:evenodd;fill:#155D9C;}
	.st2{fill:#D8E8FF;}
	.st3{fill:#155D9C;}
	.st4{fill:#A0B6CB;}
	.st5{fill:#041C42;}
	.st6{fill:#1A4571;}
</style>
<rect y="0" class="st0" width="550" height="428.9"/>
<path class="st1" d="M268,22.8V0h16.8v22.8h142.9V0H445v22.8h39.1c4.3,0,7.9,3.5,7.9,7.9V135c0,4.3-3.5,7.9-7.9,7.9H233.4
	c-4.3,0-7.9-3.5-7.9-7.9V30.7c0-4.3,3.5-7.9,7.9-7.9H268z"/>
<path class="st2" d="M241.3,46.4c0-4.3,3.5-7.9,7.9-7.9h219.2c4.3,0,7.9,3.5,7.9,7.9v72.9c0,4.3-3.5,7.9-7.9,7.9H249.1
	c-4.3,0-7.9-3.5-7.9-7.9V46.4z"/>
<path class="st1" d="M395.7,59.3c-0.8,5.2,3.1,8,5.5,8.7c-0.8-1.4-1.9-5.3,1-8.7c3.7-4.2,1.3-10-1.6-12.3c0.6,3.3-0.6,4.7-2,6.3
	C397.5,54.7,396.2,56.2,395.7,59.3z M430.3,71.1h-58.2c0,10.2,5.8,30.8,28.8,31.2c10.1,0.2,17-3.8,21.5-9.2
	c10.6,10.2,18.2,7.2,20.7,4.4c2.5-3.1,6.6-10.9,2.6-17.8c-3.8-6.5-11.9-4.7-16.1-2.7C430.1,74.8,430.3,72.8,430.3,71.1z M428.2,82.6
	c-0.8,2.2-1.7,4.4-3,6.5c4,3.2,11.7,7.5,15.1,2.6c3.6-5.2,1.5-8.8,0-10C438.6,80.3,433.8,78.3,428.2,82.6z M370.5,104.9H401h31.5
	c-2.3,3.1-11.7,9.4-31.5,9.2C381.2,113.9,372.5,107.9,370.5,104.9z M308.4,52.2L338,75.5l7.3,5.8l-7.3,5.8l-29.6,24.4l-7.3-11.3
	l19.1-13.1h-50.1V75.5h50.1L301,66.6L308.4,52.2z"/>
<path class="st2" d="M342.4,194.1c-14.5,14.3-24.3,23.2-42.1,39.6l9.1,14.9c6.3,0.4,19.1-3.3,27.2-12.7c8.5-9.8,2.8-19.6,0-25.4
	c5.4-5.9,16.7-16.9,14-20.3C347.9,187,344.4,191.9,342.4,194.1z"/>
<path class="st3" d="M173.9,349.8l30.7,79.1H46.4H0c1.3-38.6,31.5-73.8,46.4-86.6c22.9-16.5,48-22.3,59.7-23l24.9-2.9
	c34.2,1.2,78.5-28.7,96.4-43.9c11.1-9.1,36.6-28.7,50.1-35c4.4-2,8.6-1.9,12.2-0.6l9.6-8.7l18.5,30.7l-9.5,6.2
	c-0.5,11.1-7.6,27.7-30.9,47.7C242.4,343.2,193.7,350.1,173.9,349.8z"/>
<path class="st3" d="M87.2,292.1c4.3-0.9,5-9.3,4.9-13.4L84.7,231l58.3-9.4c6.8,2.6,19.4,4.9,15.8-6.9c-3.6-11.8-22.1-16.6-31-17.6
	c6.8-2.1,11-6.2,12.2-8c2.2-2.4,3.1-7.5-11.1-9.1c-14.3-1.6-27.2,7.8-31.8,12.7c2.8-6.7,5.4-18.6-6.9-12.7
	c-12.3,5.9-15.8,21.3-16,28.3c-2.2-4.5-7.5-9.4-10.7,6.5c-3.2,15.9,7.1,38.4,12.7,47.7C78.1,272.7,82.9,293,87.2,292.1z"/>
<path class="st2" d="M70.9,261.1c-0.9-8.9,6.3-5.6,10-2.9v-30.7l36.7-23.4l28.5,17.1c20.1,38.7,4.2,67.6-6.2,77.3
	c-5.5,1-10.6,1.2-15.4,0.8l5.6,17.7c-11,10-22,6.8-26.1,4l-13-40.3c-4.3-5.3-7.2-10.8-8.8-15.1c-0.9,2.3-2.2,3.5-2.7,3.8
	C77.1,270.3,71.8,270,70.9,261.1z"/>
<path class="st4" d="M105.6,291.8c6.2,5.2,15.2,7.1,18.9,7.3l4.5,14.3C114.6,309.2,107.4,297.3,105.6,291.8z"/>
<path class="st3" d="M91.4,264.7c-5,3-9.1-3-10.5-6.5l-3.6-32.1l39.2-25.4l31.6,14l0.2,8.5c-16.6-2.3-27.4-8-33.9-10.7
	c2.2,2.2,8.5,6.2,6.5,10c-1.7,3.2-6.3,2.3-8.2,1.8c-3.5-0.6-11.8-1.6-17.4-0.9s-5.7,4.8-5.1,6.7C92.7,240.4,96.4,261.6,91.4,264.7z"
	/>
<path class="st5" d="M130.1,317c-9.6,6.4-21.7,4.6-26.5,2.9c-5.5,0.5-8.4,1.3-9.1,1.6c1.4,3,4.3,5.9,5.6,6.9
	c4,2.7,14.6,7.7,24.9,5.6c10.3-2.1,13.2-12.3,13.4-17.1C134.8,317,133.3,317,130.1,317z"/>
<path class="st5" d="M114.1,231.5c0.2-1.6-1.6-2.2-3.6-2.4c-2-0.3-4.2,0.4-6.5,1.3c-2.2,0.9-4.2,3.8-5.1,5.1
	c-0.7,0.8-1.8,2.6-0.9,3.3c1.2,1,2.6-0.7,3.6-2c3.7-4.7,6.6-4.7,7.9-4.7C111.6,232.2,113.9,233.1,114.1,231.5z"/>
<path class="st5" d="M137.7,227.5c-2.3-1.2-4.7-1.3-5.6-1.1c-3.9,0-7.1,3.3-8.2,4.9c-0.4,1.8-1.1,6.4,1.8,12.2
	c3.6,7.3,7.9,9.3,8.5,9.6c1.1,0.7,4.9,1.1,3.3,4.2c-1.2,2.5-5.1,3.6-6.9,3.8c-1.1,0.1-3.4-0.1-3.6-1.3c-0.2-1.2,0.8-1.3,1.3-1.1
	c0.5,0.1,1.7,0.2,2.2,0.2c0.7,0,2.4-0.4,3.1-1.1c0.7-0.7,0.7-1.3,0-1.8c-1.8-1.2-6.4-4.4-9.8-10.5c-3.4-6.1-3.3-13.5-2.4-15.4
	c2-4.2,6-6.5,12-6.9c4.8-0.4,6.3,1.6,6.5,2.7C140.2,227,140,228.7,137.7,227.5z"/>
<path class="st5" d="M113.4,265.1c4.5,3.3,7.3,3.8,8.9,4c3.2,0.5,7.6-0.1,9.8,0.4c2.2,0.6,6.2,3.3,4.2,9.6c-2,6.2-7.9,7.8-10.7,7.8
	c-3.6,0-12.3-1.3-18.7-6.7s-4.3-11.3-2.4-13.6C106,265,109.9,262.5,113.4,265.1z"/>
<path class="st2" d="M105.9,275.8c1.6,3.1,10.5,8.9,18.7,8.9C124.6,280,114.3,271.4,105.9,275.8z"/>
<path class="st5" d="M107,245.3c0.1-0.9,0.3-1.6,0.6-2.2c1.1-1.9,4-1.2,5,0.7c0.6,1,1,2.4,0.8,4.1c-0.2,2.1-1,3-1.9,3.4
	c-1.2,0.5-2.5-0.4-3.2-1.5C107.6,248.8,106.9,247.2,107,245.3z"/>
<path class="st5" d="M134.2,238c0.1-0.9,0.3-1.6,0.6-2.2c1.1-1.9,4-1.2,5,0.7c0.6,1,1,2.4,0.8,4.1c-0.2,2.1-1,3-1.9,3.4
	c-1.2,0.5-2.5-0.4-3.2-1.5C134.7,241.4,134,239.9,134.2,238z"/>
<path class="st5" d="M57.5,376.3V429h3.1v-52.7c0-0.5-0.3-1.6-1.6-1.6C57.8,374.7,57.5,375.7,57.5,376.3z"/>
<path class="st6" d="M445.6,204.7c7.9-5.5,26-11.8,35.2,7s9.4,31.8,8,36c-2.6,8.3-2.2,17.7,8.5,25.6c10.7,8,17.3,22.2,19.3,28.4
	c1,2.5,1.8,10.8,0,15.7c-3.3,9.1,2.2,13,5.8,17.8c5.2,5.5,14,20.6,7,37.7l-7-8l-184.1,9.6c-3.5-1.8-11-7.8-13.6-16.9
	c-2.5-9.1,4.7-26.5,8.7-34.1c4.7-6.4,13.9-21.9,13.6-33c-0.4-14,4.2-24.8,11-28c6.8-3.2,13.1-15.5,13.3-20.8
	c0.2-5.3,7.5-29.3,21.2-39.4C405.6,192.7,434.8,181.9,445.6,204.7z"/>
<path class="st3" d="M449,312.1c10-1.1,35.7,3.1,59.3,28.4c5.3,5.7,10,12.4,14.1,19.6c8.9,15.8,26.8,51.7,26.8,68.5h-26.8H317.5
	c0.7-22.5,18.4-64.4,39.6-85.3c19.6-19.4,48.1-28.5,63.1-31.1H449z"/>
<path class="st5" d="M427.8,336.2l-7.8-24.4c-3.7,0.5-8.8,1.9-10.8,2.5l16.5,37.5l38.1-38.3c-5.4-2-12-2-14.6-1.7L427.8,336.2z"/>
<path class="st2" d="M453.4,255.8c4.3-2.9,12.5-5.4,10.6,7.6c-1.9,13-9.5,9.5-13.1,6.1l-1.9,42.6l-21.2,24.1l-7.8-24.1l3.2-14.4
	c-4.6,2-9.5,3.1-14.8,2.7c-22.5-1.5-27.1-45.3-22.9-67.6l56.5-21.4l16.5,32.2L453.4,255.8z"/>
<path class="st6" d="M416.6,226.8c18.5-0.3,24.1-11,26.5-16.1c-2.2,10.4-1.6,19.7,0.8,23.5c2.8,4.2,5.1,4.2,8,7.2
	c4.4,4.4,2.8,11.4,1.5,14.4l11.6-5.7l-22-41.7l-61,18.8l0.8,23.7C386.4,243,398.1,227.1,416.6,226.8z"/>
<path class="st5" d="M427.8,239.7c0-1.5,1.7-1.9,2.8-1.9c1.3,0,4.2,0.1,7.4,1.3s5.3,3.5,5.9,4.4c0.4,0.5,1.1,1.7,0.4,2.8
	c-0.7,1-1.8,0.4-2.3,0c-1.3-1.2-4.1-3.7-5.3-4c-1.2-0.3-5.2-0.6-7-0.6C429.1,241.6,427.8,241.2,427.8,239.7z"/>
<path class="st5" d="M399.4,237.4c0.3,1,1.7,1,2.3,0.8c3-0.6,8.6-2.7,11.4,0.4c2.8,3,0.7,5.7-0.6,8c-1.9,3.3-8.3,8-10.8,9.5
	c-2.5,1.5-3.4,1.9-3.4,2.8c0,0.8,0.6,1.7,3.8,4c3.2,2.3,7.6,3,8.5,3c0.8,0,2.2,0.2,2.5-1.3c0.1-0.6-0.2-1.3-0.8-1.5l-4.2-0.4
	c-1.7-0.4-5.2-2.5-5.5-3c-0.3-0.5,0.1-0.9,0.4-1.1c2.8-1.7,8.5-6.2,11-10c3-4.4,3.4-5.7,3.6-7.4c0.2-1.5-0.2-2.5-0.4-3
	c-0.8-1.9-3.8-4.1-7.8-4.4c-4.1-0.3-7.6,0.8-8.9,1.5C400,235.7,399.1,236.3,399.4,237.4z"/>
<path class="st5" d="M399,246.9c0.2-2,2-2.5,3-2.5c0.9,0.2,2.5,1.4,1.3,4.4c-1.2,3.1-2.9,2.4-3.6,1.7
	C399.3,250.1,398.8,248.9,399,246.9z"/>
<path class="st5" d="M427.2,250.3c0.2-2,2-2.5,3-2.5c0.9,0.2,2.5,1.4,1.3,4.4c-1.2,3.1-2.9,2.4-3.6,1.7
	C427.5,253.5,427,252.3,427.2,250.3z"/>
<path class="st5" d="M417,281.4c-3.6,1.7-7.2,0.6-8.5-0.2c-3-1.7-4.5-3.2-5.3-3.6c-0.4-0.2-1.3,0-1.5,0.6c-0.4,1.1,1.8,2.8,3,3.6
	c2,1.3,7.2,3.8,11.2,2.8c4.1-1,6.6-4,7.4-5.3c1.4-2,3.9-6.1,2.5-6.8c-1.4-0.7-2,0.3-2.1,0.8C423,275.4,420.6,279.7,417,281.4z"/>
<path class="st5" d="M375.1,364.2v64.4h-2.9v-64.4c-0.1-1.1,0.2-2.1,1.5-2.1C374.9,362.1,375.1,363.1,375.1,364.2z"/>
<path class="st5" d="M490.3,364.2v64.4h-2.9v-64.4c-0.1-1.1,0.2-2.1,1.5-2.1C490.1,362.1,490.3,363.1,490.3,364.2z"/>
</svg>
